<svg width="20.000000" height="20.000000" viewBox="0 0 20 20" fill="none" xmlns="http://www.w3.org/2000/svg" xmlns:xlink="http://www.w3.org/1999/xlink">
	<desc>
			Created with Pixso.
	</desc>
	<defs/>
	<path id="Vector" d="M9.2 12.45L7.66 14C7.34 14.32 6.82 14.32 6.49 14C6.4 13.91 6.3 13.83 6.21 13.74C5.35 12.87 4.58 11.96 3.89 11.01C3.2 10.06 2.65 9.11 2.25 8.17C1.86 7.22 1.66 6.31 1.66 5.45C1.66 4.88 1.76 4.34 1.96 3.84C2.16 3.33 2.48 2.86 2.92 2.45C3.45 1.92 4.04 1.66 4.65 1.66C4.89 1.66 5.12 1.71 5.33 1.81C5.55 1.91 5.74 2.06 5.89 2.28L7.82 5C7.97 5.21 8.08 5.4 8.15 5.59C8.23 5.76 8.27 5.94 8.27 6.1C8.27 6.3 8.21 6.5 8.1 6.69C7.99 6.88 7.83 7.08 7.63 7.28L7 7.94C6.9 8.03 6.86 8.14 6.86 8.27C6.86 8.34 6.87 8.4 6.89 8.46C6.91 8.53 6.94 8.58 6.95 8.63C7.1 8.9 7.36 9.26 7.73 9.7C8.1 10.13 8.5 10.57 8.94 11.01C9.02 11.1 9.11 11.18 9.2 11.26C9.53 11.59 9.54 12.12 9.2 12.45Z" fill="#45403D" fill-opacity="1.000000" fill-rule="nonzero"/>
	<path id="Vector" d="M18.3 15.27C18.3 15.5 18.26 15.75 18.18 15.98C18.15 16.04 18.13 16.11 18.1 16.18C17.95 16.48 17.77 16.76 17.53 17.03C17.12 17.48 16.67 17.8 16.16 18.01C16.15 18.01 16.15 18.02 16.14 18.02C15.65 18.22 15.11 18.33 14.54 18.33C13.69 18.33 12.78 18.13 11.82 17.72C10.86 17.31 9.9 16.76 8.95 16.07C8.63 15.83 8.3 15.59 8 15.33L10.72 12.6C10.95 12.78 11.16 12.91 11.34 13C11.38 13.02 11.43 13.05 11.49 13.07C11.55 13.09 11.62 13.1 11.7 13.1C11.84 13.1 11.95 13.05 12.04 12.96L12.67 12.34C12.88 12.13 13.08 11.97 13.27 11.87C13.46 11.75 13.65 11.7 13.86 11.7C14.02 11.7 14.19 11.73 14.37 11.8C14.55 11.88 14.75 11.99 14.95 12.13L17.71 14.09C17.93 14.24 18.08 14.41 18.17 14.62C18.25 14.83 18.3 15.04 18.3 15.27Z" fill="#45403D" fill-opacity="1.000000" fill-rule="nonzero"/>
	<g opacity="0.000000"/>
</svg>
