<svg width="13.733765" height="14.085938" viewBox="0 0 13.7338 14.0859" fill="none" xmlns="http://www.w3.org/2000/svg" xmlns:xlink="http://www.w3.org/1999/xlink">
	<desc>
			Created with Pixso.
	</desc>
	<defs/>
	<path id="Vector" d="M6.86 0C4 0 3.16 0 3 0.01C2.41 0.06 2.04 0.16 1.64 0.36C1.34 0.52 1.09 0.7 0.85 0.95C0.42 1.42 0.15 1.99 0.06 2.67C0.01 3 0 3.06 0 4.75C-0.01 5.31 0 6.05 0 7.04C0 9.97 0 10.83 0.01 11C0.06 11.59 0.15 11.96 0.34 12.36C0.7 13.13 1.4 13.72 2.21 13.93C2.5 14.01 2.81 14.05 3.21 14.07C3.38 14.08 5.12 14.08 6.85 14.08C8.58 14.08 10.32 14.08 10.48 14.07C10.95 14.05 11.22 14.01 11.52 13.93C12.34 13.71 13.02 13.14 13.39 12.36C13.58 11.96 13.67 11.58 13.72 11.02C13.72 10.9 13.73 8.97 13.73 7.03C13.73 5.1 13.72 3.17 13.72 3.05C13.67 2.48 13.58 2.1 13.39 1.7C13.23 1.37 13.05 1.12 12.8 0.87C12.34 0.43 11.79 0.16 11.13 0.06C10.8 0.01 10.74 0 9.1 0L6.86 0Z" fill="#45403D" fill-opacity="1.000000" fill-rule="nonzero"/>
	<path id="Vector" d="M6.86 1.8C5.48 1.8 5.3 1.81 4.76 1.84C4.22 1.86 3.84 1.95 3.52 2.08C3.18 2.21 2.9 2.39 2.62 2.68C2.33 2.97 2.16 3.26 2.03 3.61C1.9 3.94 1.81 4.32 1.79 4.88C1.76 5.44 1.76 5.62 1.76 7.04C1.76 8.46 1.76 8.64 1.79 9.19C1.81 9.75 1.9 10.13 2.03 10.46C2.16 10.81 2.33 11.1 2.61 11.39C2.9 11.68 3.18 11.86 3.52 12C3.84 12.12 4.22 12.21 4.76 12.24C5.3 12.26 5.48 12.27 6.86 12.27C8.25 12.27 8.42 12.26 8.97 12.24C9.51 12.21 9.88 12.12 10.21 12C10.54 11.86 10.83 11.68 11.11 11.39C11.4 11.1 11.57 10.81 11.7 10.46C11.83 10.13 11.91 9.75 11.94 9.19C11.96 8.64 11.97 8.46 11.97 7.04C11.97 5.62 11.96 5.44 11.94 4.88C11.91 4.32 11.83 3.94 11.7 3.61C11.57 3.26 11.4 2.97 11.11 2.68C10.83 2.39 10.54 2.21 10.21 2.08C9.88 1.95 9.51 1.86 8.97 1.84C8.42 1.81 8.25 1.8 6.86 1.8L6.86 1.8ZM6.41 2.75C6.54 2.75 6.69 2.75 6.86 2.75C8.23 2.75 8.39 2.75 8.93 2.78C9.43 2.8 9.7 2.89 9.88 2.96C10.11 3.05 10.28 3.17 10.46 3.35C10.64 3.53 10.75 3.71 10.85 3.95C10.91 4.13 11 4.41 11.02 4.92C11.05 5.47 11.05 5.64 11.05 7.04C11.05 8.43 11.05 8.6 11.02 9.15C11 9.66 10.91 9.94 10.85 10.12C10.75 10.37 10.64 10.54 10.46 10.72C10.28 10.91 10.11 11.02 9.88 11.11C9.7 11.19 9.43 11.27 8.93 11.29C8.39 11.32 8.23 11.32 6.86 11.32C5.5 11.32 5.34 11.32 4.8 11.29C4.3 11.27 4.03 11.19 3.85 11.11C3.61 11.02 3.44 10.91 3.27 10.72C3.09 10.54 2.98 10.37 2.88 10.12C2.81 9.94 2.73 9.66 2.71 9.15C2.68 8.6 2.68 8.43 2.68 7.03C2.68 5.64 2.68 5.47 2.71 4.92C2.73 4.41 2.81 4.13 2.88 3.95C2.98 3.7 3.09 3.53 3.27 3.35C3.44 3.16 3.61 3.05 3.85 2.96C4.03 2.88 4.3 2.8 4.8 2.77C5.27 2.75 5.45 2.75 6.41 2.75L6.41 2.75ZM6.86 4.35C5.42 4.35 4.24 5.55 4.24 7.04C4.24 8.52 5.42 9.72 6.86 9.72C8.31 9.72 9.49 8.52 9.49 7.04C9.49 5.55 8.31 4.35 6.86 4.35ZM6.86 5.29C7.8 5.29 8.57 6.07 8.57 7.04C8.57 8 7.8 8.78 6.86 8.78C5.92 8.78 5.16 8 5.16 7.04C5.16 6.07 5.92 5.29 6.86 5.29Z" fill="#FFFFFF" fill-opacity="1.000000" fill-rule="nonzero"/>
	<path id="Vector" d="M5.49 1.61Q5.19 1.61 4.75 1.64L4.75 1.64Q4 1.67 3.45 1.89Q3.17 2 2.93 2.16Q2.68 2.33 2.47 2.54Q2.31 2.71 2.18 2.89Q1.97 3.19 1.84 3.54Q1.62 4.11 1.59 4.87Q1.57 5.32 1.56 5.63Q1.56 6.03 1.56 7.04Q1.56 8.05 1.56 8.44Q1.57 8.75 1.59 9.2Q1.62 9.97 1.84 10.54Q1.97 10.88 2.17 11.17Q2.31 11.36 2.47 11.53Q2.69 11.75 2.94 11.92Q3.17 12.07 3.45 12.18Q4 12.4 4.75 12.44Q5.19 12.46 5.49 12.46Q5.87 12.47 6.86 12.47Q7.86 12.47 8.24 12.46Q8.54 12.46 8.98 12.44Q9.73 12.4 10.28 12.18Q10.55 12.08 10.78 11.93Q11.04 11.76 11.26 11.53Q11.42 11.37 11.55 11.18Q11.76 10.89 11.89 10.54Q12.1 9.97 12.14 9.2Q12.16 8.75 12.16 8.44Q12.17 8.05 12.17 7.04Q12.17 6.02 12.16 5.63Q12.16 5.32 12.14 4.87Q12.1 4.11 11.89 3.54Q11.76 3.19 11.55 2.89Q11.42 2.7 11.26 2.54Q11.04 2.32 10.78 2.15Q10.54 2 10.28 1.89Q9.72 1.67 8.98 1.64Q8.54 1.61 8.23 1.61Q7.86 1.6 6.86 1.6L6.86 1.6Q5.87 1.6 5.49 1.61ZM6.86 1.8C5.48 1.8 5.3 1.81 4.76 1.84C4.22 1.86 3.84 1.95 3.52 2.08C3.18 2.21 2.9 2.39 2.62 2.68C2.33 2.97 2.16 3.26 2.03 3.61C1.9 3.94 1.81 4.32 1.79 4.88C1.76 5.44 1.76 5.62 1.76 7.04C1.76 8.46 1.76 8.64 1.79 9.19C1.81 9.75 1.9 10.13 2.03 10.46C2.16 10.81 2.33 11.1 2.61 11.39C2.9 11.68 3.18 11.86 3.52 12C3.84 12.12 4.22 12.21 4.76 12.24C5.3 12.26 5.48 12.27 6.86 12.27C8.25 12.27 8.42 12.26 8.97 12.24C9.51 12.21 9.88 12.12 10.21 12C10.54 11.86 10.83 11.68 11.11 11.39C11.4 11.1 11.57 10.81 11.7 10.46C11.83 10.13 11.91 9.75 11.94 9.19C11.96 8.64 11.97 8.46 11.97 7.04C11.97 5.62 11.96 5.44 11.94 4.88C11.91 4.32 11.83 3.94 11.7 3.61C11.57 3.26 11.4 2.97 11.11 2.68C10.83 2.39 10.54 2.21 10.21 2.08C9.88 1.95 9.51 1.86 8.97 1.84C8.42 1.81 8.25 1.8 6.86 1.8L6.86 1.8ZM6.61 2.75C6.54 2.75 6.47 2.75 6.41 2.75L6.41 2.75C6.34 2.75 6.27 2.75 6.21 2.75C5.43 2.75 5.24 2.75 4.8 2.77C4.3 2.8 4.03 2.88 3.85 2.96C3.61 3.05 3.44 3.16 3.27 3.35C3.09 3.53 2.98 3.7 2.88 3.95C2.81 4.13 2.73 4.41 2.71 4.92C2.68 5.47 2.68 5.64 2.68 7.03C2.68 8.43 2.68 8.6 2.71 9.15C2.73 9.66 2.81 9.94 2.88 10.12C2.98 10.37 3.09 10.54 3.27 10.72C3.44 10.91 3.61 11.02 3.85 11.11C4.03 11.19 4.3 11.27 4.8 11.29C5.34 11.32 5.5 11.32 6.86 11.32C8.23 11.32 8.39 11.32 8.93 11.29C9.43 11.27 9.7 11.19 9.88 11.11C10.11 11.02 10.28 10.91 10.46 10.72C10.64 10.54 10.75 10.37 10.85 10.12C10.91 9.94 11 9.66 11.02 9.15C11.05 8.6 11.05 8.43 11.05 7.04C11.05 5.64 11.05 5.47 11.02 4.92C11 4.41 10.91 4.13 10.85 3.95C10.75 3.71 10.64 3.53 10.46 3.35C10.28 3.17 10.11 3.05 9.88 2.96C9.7 2.89 9.43 2.8 8.93 2.78C8.39 2.75 8.23 2.75 6.86 2.75C6.81 2.75 6.75 2.75 6.69 2.75C6.66 2.75 6.64 2.75 6.61 2.75ZM6.21 2.95Q5.69 2.95 5.43 2.95Q5.19 2.96 4.81 2.97Q4.28 3 3.93 3.14Q3.77 3.2 3.63 3.3Q3.51 3.38 3.41 3.49Q3.33 3.57 3.26 3.67Q3.14 3.83 3.07 4.02Q2.93 4.39 2.91 4.93Q2.89 5.36 2.88 5.66Q2.88 6.03 2.88 7.03Q2.88 8.04 2.88 8.41Q2.89 8.71 2.91 9.14Q2.93 9.68 3.07 10.05Q3.14 10.24 3.26 10.4Q3.33 10.5 3.41 10.58Q3.52 10.69 3.64 10.78Q3.77 10.87 3.93 10.93Q4.28 11.07 4.81 11.09Q5.23 11.11 5.53 11.12Q5.89 11.12 6.86 11.12Q7.84 11.12 8.2 11.12Q8.49 11.11 8.92 11.09Q9.45 11.07 9.8 10.93Q9.96 10.86 10.08 10.78Q10.2 10.71 10.32 10.58Q10.41 10.49 10.48 10.39Q10.59 10.23 10.66 10.05Q10.8 9.68 10.82 9.14Q10.84 8.71 10.85 8.41Q10.85 8.04 10.85 7.04Q10.85 6.03 10.85 5.66Q10.84 5.37 10.82 4.93Q10.8 4.39 10.66 4.02Q10.58 3.82 10.46 3.66Q10.4 3.57 10.32 3.49Q10.2 3.37 10.08 3.29Q9.96 3.21 9.8 3.14Q9.45 3 8.92 2.98Q8.5 2.96 8.2 2.95Q7.85 2.95 6.86 2.95L6.21 2.95L6.21 2.95ZM4.12 6.38Q4.04 6.7 4.04 7.04Q4.04 7.37 4.12 7.69Q4.17 7.93 4.26 8.16Q4.38 8.43 4.54 8.67Q4.68 8.89 4.87 9.08Q5.09 9.31 5.36 9.48Q5.55 9.6 5.76 9.7Q6.01 9.8 6.27 9.86Q6.56 9.92 6.86 9.92Q7.17 9.92 7.46 9.86Q7.72 9.8 7.96 9.7Q8.18 9.6 8.37 9.48Q8.63 9.31 8.86 9.08Q9.05 8.89 9.19 8.67Q9.35 8.43 9.47 8.16Q9.56 7.93 9.61 7.7Q9.69 7.37 9.69 7.04Q9.69 6.7 9.61 6.38Q9.56 6.14 9.47 5.91Q9.35 5.64 9.19 5.4Q9.05 5.19 8.86 5Q8.63 4.76 8.37 4.59Q8.18 4.47 7.96 4.38Q7.72 4.27 7.46 4.21Q7.17 4.15 6.86 4.15Q6.56 4.15 6.27 4.21Q6.01 4.27 5.76 4.38Q5.55 4.47 5.36 4.59Q5.09 4.76 4.87 5Q4.68 5.19 4.54 5.4Q4.38 5.64 4.26 5.91Q4.17 6.14 4.12 6.38ZM6.86 4.35C5.42 4.35 4.24 5.55 4.24 7.04C4.24 8.52 5.42 9.72 6.86 9.72C8.31 9.72 9.49 8.52 9.49 7.04C9.49 5.55 8.31 4.35 6.86 4.35ZM6.86 5.29C7.8 5.29 8.57 6.07 8.57 7.04C8.57 8 7.8 8.78 6.86 8.78C5.92 8.78 5.16 8 5.16 7.04C5.16 6.07 5.92 5.29 6.86 5.29ZM8.33 6.67Q8.37 6.85 8.37 7.04Q8.37 7.22 8.33 7.4Q8.3 7.52 8.25 7.64Q8.19 7.79 8.1 7.92Q8.02 8.03 7.93 8.13Q7.8 8.26 7.65 8.35Q7.56 8.41 7.45 8.46Q7.32 8.52 7.18 8.55Q7.03 8.58 6.86 8.58Q6.7 8.58 6.55 8.55Q6.41 8.52 6.28 8.46Q6.17 8.41 6.08 8.35Q5.93 8.26 5.8 8.13Q5.71 8.03 5.63 7.92Q5.54 7.79 5.48 7.64Q5.43 7.52 5.4 7.4Q5.36 7.22 5.36 7.04Q5.36 6.85 5.4 6.67Q5.43 6.55 5.48 6.43Q5.54 6.29 5.63 6.16Q5.71 6.04 5.8 5.94Q5.93 5.82 6.08 5.72Q6.17 5.66 6.28 5.61Q6.41 5.56 6.55 5.53Q6.7 5.49 6.86 5.49Q7.03 5.49 7.18 5.53Q7.32 5.56 7.45 5.61Q7.56 5.66 7.65 5.72Q7.8 5.82 7.93 5.94Q8.02 6.04 8.1 6.16Q8.19 6.29 8.25 6.43Q8.3 6.55 8.33 6.67Z" fill="#FFFFFF" fill-opacity="1.000000" fill-rule="evenodd"/>
</svg>
