<svg width="16.666687" height="14.166748" viewBox="0 0 16.6667 14.1667" fill="none" xmlns="http://www.w3.org/2000/svg" xmlns:xlink="http://www.w3.org/1999/xlink">
	<desc>
			Created with Pixso.
	</desc>
	<defs/>
	<path id="Vector" d="M12.5 0L4.16 0C1.66 0 0 1.25 0 4.16L0 10C0 12.91 1.66 14.16 4.16 14.16L12.5 14.16C15 14.16 16.66 12.91 16.66 10L16.66 4.16C16.66 1.25 15 0 12.5 0ZM12.89 5.07L10.28 7.15C9.73 7.6 9.03 7.81 8.33 7.81C7.63 7.81 6.92 7.6 6.38 7.15L3.77 5.07C3.5 4.85 3.46 4.45 3.67 4.19C3.89 3.92 4.28 3.87 4.54 4.09L7.15 6.17C7.79 6.68 8.86 6.68 9.5 6.17L12.1 4.09C12.37 3.87 12.77 3.91 12.98 4.19C13.2 4.45 13.15 4.85 12.89 5.07Z" fill="#45403D" fill-opacity="1.000000" fill-rule="nonzero"/>
</svg>
