<svg width="14.791626" height="17.083252" viewBox="0 0 14.7916 17.0833" fill="none" xmlns="http://www.w3.org/2000/svg" xmlns:xlink="http://www.w3.org/1999/xlink">
	<desc>
			Created with Pixso.
	</desc>
	<defs/>
	<path id="Vector" d="M14.58 5.58C13.7 1.73 10.35 0 7.39 0C7.39 0 7.39 0 7.39 0C4.45 0 1.08 1.72 0.2 5.57C-0.77 9.87 1.86 13.51 4.25 15.8C5.13 16.65 6.26 17.08 7.39 17.08C8.53 17.08 9.66 16.65 10.54 15.8C12.92 13.51 15.55 9.88 14.58 5.58ZM7.39 9.75C5.95 9.75 4.77 8.58 4.77 7.13C4.77 5.68 5.95 4.5 7.39 4.5C8.84 4.5 10.02 5.68 10.02 7.13C10.02 8.58 8.84 9.75 7.39 9.75Z" fill="#45403D" fill-opacity="1.000000" fill-rule="nonzero"/>
</svg>
