<svg width="14.000000" height="14.000000" viewBox="0 0 14 14" fill="none" xmlns="http://www.w3.org/2000/svg" xmlns:xlink="http://www.w3.org/1999/xlink">
	<desc>
			Created with Pixso.
	</desc>
	<defs/>
	<path id="Vector" d="M6.71 14L7.29 14C10.46 14 12.04 14 13.02 13.01C14 12.03 14 10.45 14 7.29L14 6.7C14 3.54 14 1.96 13.02 0.98C12.05 0 10.46 0 7.29 0L6.71 0C3.54 0 1.96 0 0.98 0.98C0 1.96 0 3.54 0 6.7L0 7.29C0 10.45 0 12.03 0.98 13.01C1.96 14 3.54 14 6.71 14Z" fill="#45403D" fill-opacity="1.000000" fill-rule="nonzero"/>
	<path id="Vector" d="M7.51 10.09C4.35 10.09 2.44 7.9 2.36 4.26L3.96 4.26C4.01 6.93 5.23 8.07 6.16 8.3L6.16 4.26L7.69 4.26L7.69 6.57C8.59 6.47 9.53 5.42 9.85 4.26L11.35 4.26C11.11 5.68 10.09 6.73 9.36 7.17C10.09 7.52 11.26 8.43 11.7 10.09L10.05 10.09C9.7 8.98 8.84 8.12 7.69 8.01L7.69 10.09L7.51 10.09Z" fill="#FFFFFF" fill-opacity="1.000000" fill-rule="nonzero"/>
</svg>
